<svg xmlns="http://www.w3.org/2000/svg" viewBox="0 0 25 34"><defs><style>.cls-1{fill:#445a64;}.cls-2{fill:#add37f;}.cls-3{fill:#c3dfa3;}.cls-4{fill:#ebedef;}.cls-5{fill:#ef6bff;}.cls-6{fill:#f7a724;}</style></defs><title>combo calculator</title><g id="Layer_2" data-name="Layer 2"><g id="Layer_1-2" data-name="Layer 1"><rect class="cls-1" width="25" height="34" rx="2.48"/><path class="cls-2" d="M23.13,3V8a1,1,0,0,1-1,1H22V3H1.87a1,1,0,0,1,1-1H22.13A1,1,0,0,1,23.13,3Z"/><path class="cls-3" d="M22,3V9H2.87a1,1,0,0,1-1-1V3Z"/><rect class="cls-4" x="1.9" y="11" width="4" height="4" rx="1"/><rect class="cls-4" x="7.5" y="11" width="4" height="4" rx="1"/><rect class="cls-4" x="13.1" y="11" width="4" height="4" rx="1"/><rect class="cls-5" x="19.1" y="11" width="4" height="4" rx="1"/><rect class="cls-4" x="1.9" y="16.6" width="4" height="4" rx="1"/><rect class="cls-4" x="7.5" y="16.6" width="4" height="4" rx="1"/><rect class="cls-4" x="13.1" y="16.6" width="4" height="4" rx="1"/><rect class="cls-5" x="19.1" y="16.6" width="4" height="4" rx="1"/><rect class="cls-4" x="1.9" y="22.2" width="4" height="4" rx="1"/><rect class="cls-4" x="7.5" y="22.2" width="4" height="4" rx="1"/><rect class="cls-4" x="13.1" y="22.2" width="4" height="4" rx="1"/><rect class="cls-6" x="19.1" y="22.18" width="4" height="9.62" rx="1"/><rect class="cls-4" x="1.9" y="27.8" width="4" height="4" rx="1"/><rect class="cls-4" x="7.5" y="27.8" width="4" height="4" rx="1"/><rect class="cls-4" x="13.1" y="27.8" width="4" height="4" rx="1"/></g></g></svg>