<svg xmlns="http://www.w3.org/2000/svg" width="19.692" height="25.911" viewBox="0 0 19.692 25.911">
  <g id="Icon_ionic-ios-document" data-name="Icon ionic-ios-document" transform="translate(-7.313 -3.938)">
    <path id="Path_1647" data-name="Path 1647" d="M21.832,10.351h5.895a.321.321,0,0,0,.324-.324h0a1.917,1.917,0,0,0-.693-1.483l-4.943-4.12a2.081,2.081,0,0,0-1.334-.479h0a.478.478,0,0,0-.479.479v4.7A1.23,1.23,0,0,0,21.832,10.351Z" transform="translate(-1.046 -0.001)" />
    <path id="Path_1648" data-name="Path 1648" d="M17.871,9.12V3.938H9.385A2.079,2.079,0,0,0,7.312,6.01V27.776a2.079,2.079,0,0,0,2.073,2.073H24.932A2.079,2.079,0,0,0,27,27.776V12.035H20.786A2.919,2.919,0,0,1,17.871,9.12Z" transform="translate(0)" />
  </g>
</svg>
