<svg xmlns="http://www.w3.org/2000/svg" viewBox="0 0 18.27 18.26"><defs><style>.cls-1{fill:#666;}</style></defs><title>Pinned</title><g id="Layer_2" data-name="Layer 2"><g id="Layer_1-2" data-name="Layer 1"><path class="cls-1" d="M18,5.9,12.37.31a1.06,1.06,0,0,0-1.5,0l-.31.31A2,2,0,0,0,10,1.89V3a1,1,0,0,1-.22.53L6.87,6.43a1,1,0,0,1-.53.22H5.28A2,2,0,0,0,4,7.17l-.31.31A1.07,1.07,0,0,0,3.7,9l1.64,1.64L.11,17.42a.52.52,0,0,0,.05.69.51.51,0,0,0,.37.15.5.5,0,0,0,.32-.11l6.8-5.22,1.64,1.64a1.08,1.08,0,0,0,1.49,0l.31-.31A2,2,0,0,0,11.62,13V11.93a.93.93,0,0,1,.22-.53l2.95-3a1,1,0,0,1,.53-.22h1.05a2,2,0,0,0,1.28-.53L18,7.39A1.05,1.05,0,0,0,18,5.9Zm-14.54,9,2.67-3.48.81.8ZM16.9,7a1,1,0,0,1-.53.21H15.32A2,2,0,0,0,14,7.7l-2.95,3a2,2,0,0,0-.53,1.28V13a1,1,0,0,1-.21.53l-.31.31h0L4.44,8.23l.31-.31a1,1,0,0,1,.53-.22H6.34a1.94,1.94,0,0,0,1.27-.53l3-2.95A1.94,1.94,0,0,0,11.09,3V1.89a1,1,0,0,1,.22-.53l.31-.3,5.59,5.59Z"/></g></g></svg>