<svg xmlns="http://www.w3.org/2000/svg" viewBox="0 0 18 17"><defs><style>.cls-1{fill:#666;}</style></defs><title>Asset 30</title><g id="Layer_2" data-name="Layer 2"><g id="Layer_1-2" data-name="Layer 1"><path class="cls-1" d="M10,1a.51.51,0,0,0-.45.28L7.17,6.05,1.42,7a.5.5,0,0,0-.4.34.49.49,0,0,0,.13.5L5,11.67,4,17.42a.47.47,0,0,0,.2.49A.52.52,0,0,0,4.5,18a.53.53,0,0,0,.24-.06L10,15.07l5.26,2.87a.53.53,0,0,0,.24.06.52.52,0,0,0,.29-.09.51.51,0,0,0,.2-.49l-1-5.75,3.82-3.82a.49.49,0,0,0,.13-.5.5.5,0,0,0-.4-.34l-5.75-1L10.45,1.28A.51.51,0,0,0,10,1ZM5.16,16.57l.83-5a.46.46,0,0,0-.14-.43L2.54,7.83l5-.84A.49.49,0,0,0,8,6.72L10,2.62l2.05,4.1a.47.47,0,0,0,.37.27l5,.84-3.31,3.32a.46.46,0,0,0-.14.43l.83,5-4.6-2.51a.51.51,0,0,0-.48,0l-4.6,2.51Z" transform="translate(-1 -1)"/></g></g></svg>