<svg xmlns="http://www.w3.org/2000/svg" viewBox="0 0 16.89 17.9"><defs><style>.cls-1{fill:#666;}</style></defs><title>history</title><g id="Layer_2" data-name="Layer 2"><g id="Layer_1-2" data-name="Layer 1"><path class="cls-1" d="M14.27,2.62A9,9,0,0,0,.91,3.41V2.24a.45.45,0,0,0-.9,0V4.9a.45.45,0,0,0,.34.43.36.36,0,0,0,.25,0h0l2.56-.87a.44.44,0,1,0-.29-.84l-1.33.45a8.05,8.05,0,1,1-.7,8.71.44.44,0,0,0-.6-.18.45.45,0,0,0-.19.6A9,9,0,1,0,14.27,2.62Z"/><path class="cls-1" d="M7.94,9.4a.43.43,0,0,1-.22-.06l-4-2.23a.46.46,0,0,1-.17-.61.45.45,0,0,1,.61-.18L7.92,8.43l4.7-3a.45.45,0,1,1,.48.76L8.18,9.33a.55.55,0,0,1-.24.07Z"/></g></g></svg>