<svg xmlns="http://www.w3.org/2000/svg" viewBox="0 0 15 18"><defs><style>.cls-1{fill:#fff;}</style></defs><title>notifications</title><g id="Layer_2" data-name="Layer 2"><g id="Layer_1-2" data-name="Layer 1"><path class="cls-1" d="M14.8,14.1A4.48,4.48,0,0,1,13,10.5v-3A5.5,5.5,0,0,0,9,2.21V1.5a1.5,1.5,0,0,0-3,0v.71A5.5,5.5,0,0,0,2,7.5v3A4.48,4.48,0,0,1,.2,14.1a.5.5,0,0,0-.17.56A.49.49,0,0,0,.5,15H5.05a2.73,2.73,0,0,0,0,.5,2.5,2.5,0,0,0,5,0A2.73,2.73,0,0,0,10,15H14.5a.5.5,0,0,0,.3-.9ZM7,1.5a.5.5,0,0,1,1,0V2L7.5,2,7,2Zm2,14a1.5,1.5,0,0,1-3,0,1.43,1.43,0,0,1,.09-.5H8.91A1.43,1.43,0,0,1,9,15.5ZM1.74,14a5.41,5.41,0,0,0,.66-1A5.42,5.42,0,0,0,3,10.5v-3a4.5,4.5,0,0,1,9,0v3a5.42,5.42,0,0,0,.6,2.5,5.09,5.09,0,0,0,.66,1Z"/></g></g></svg>