<svg xmlns="http://www.w3.org/2000/svg" viewBox="0 0 17.13 17.13"><defs><style>.cls-1{fill:#666;}</style></defs><title>Recent</title><g id="Layer_2" data-name="Layer 2"><g id="Layer_1-2" data-name="Layer 1"><path class="cls-1" d="M14.63,2.51a8.57,8.57,0,0,0-12.12,0A8.57,8.57,0,0,0,8.57,17.13,8.57,8.57,0,0,0,14.63,2.51ZM8.57,16.23a7.67,7.67,0,1,1,7.66-7.66A7.68,7.68,0,0,1,8.57,16.23Z"/><path class="cls-1" d="M13.64,5.64A.45.45,0,0,0,13,5.47L8.59,8,5.13,5.61a.46.46,0,0,0-.63.11.45.45,0,0,0,.12.63L8.31,8.94h.36l.05,0h0l0,0h0l4.69-2.71a.44.44,0,0,0,.16-.61Z"/></g></g></svg>