<svg xmlns="http://www.w3.org/2000/svg" viewBox="0 0 14.68 17.27"><defs><style>.cls-1{fill:#666;}</style></defs><title>To-do</title><g id="Layer_2" data-name="Layer 2"><g id="Layer_1-2" data-name="Layer 1"><path class="cls-1" d="M13.38,17.27H1.29A1.3,1.3,0,0,1,0,16V3.88A1.29,1.29,0,0,1,1.29,2.59h.87a.43.43,0,0,1,0,.86H1.29a.44.44,0,0,0-.43.43V16a.43.43,0,0,0,.43.43H13.38a.43.43,0,0,0,.43-.43V3.88a.43.43,0,0,0-.43-.43h-.86a.43.43,0,0,1,0-.86h.86a1.3,1.3,0,0,1,1.3,1.29V16A1.3,1.3,0,0,1,13.38,17.27Z"/><path class="cls-1" d="M10.79,4.32H3.88a.44.44,0,0,1-.43-.44A2,2,0,0,1,4.56,2a2.27,2.27,0,0,1,.65-.22,2.16,2.16,0,0,1,4.25,0,2.32,2.32,0,0,1,.66.22,2,2,0,0,1,1.1,1.87v0a.44.44,0,0,1-.43.44ZM4.37,3.45h5.94a1.1,1.1,0,0,0-.55-.68,1.83,1.83,0,0,0-.7-.18.43.43,0,0,1-.43-.43A1.3,1.3,0,1,0,6,2.16a.43.43,0,0,1-.43.43,1.8,1.8,0,0,0-.69.18A1,1,0,0,0,4.37,3.45Z"/><path class="cls-1" d="M7.34,2.59A.44.44,0,0,1,7,2.46a.42.42,0,0,1-.12-.3A.45.45,0,0,1,7,1.85a.45.45,0,0,1,.31-.12.42.42,0,0,1,.3.12.46.46,0,0,1,.13.31.44.44,0,0,1-.43.43Z"/></g></g></svg>